<svg width="130" height="130" viewBox="0 0 130 130" fill="none" xmlns="http://www.w3.org/2000/svg">
  <rect width="130" height="130" rx="29" fill="#032E15"/>
  <g transform="translate(20 20) scale(0.692)" fill="#00C950">
    <path d="M32.559 0C50.5408 0 65.118 14.5904 65.118 32.5885C47.1361 32.5885 32.559 17.9981 32.559 0Z"/>
    <path d="M97.559 0C79.5771 0 65 14.5904 65 32.5885C82.9818 32.5885 97.559 17.9981 97.559 0Z"/>
    <path d="M32.6769 65.059C14.6951 65.059 0.117981 50.4686 0.117981 32.4705C18.0998 32.4705 32.6769 47.0609 32.6769 65.059Z"/>
    <path d="M65.118 32.4705C47.1361 32.4705 32.559 47.0609 32.559 65.059C50.5408 65.059 65.118 50.4686 65.118 32.4705Z"/>
    <path d="M65 32.4704C82.9818 32.4704 97.559 47.0608 97.559 65.0589C79.5771 65.0589 65 50.4686 65 32.4704Z"/>
    <path d="M97.441 65.059C115.423 65.059 130 50.4686 130 32.4705C112.018 32.4705 97.441 47.0609 97.441 65.059Z"/>
    <path d="M32.559 64.9409C14.5772 64.9409 0 79.5312 0 97.5294C17.9818 97.5294 32.559 82.939 32.559 64.9409Z"/>
    <path d="M32.559 64.9409C50.5408 64.9409 65.118 79.5312 65.118 97.5294C47.1361 97.5294 32.559 82.939 32.559 64.9409Z"/>
    <path d="M97.559 64.941C79.5771 64.941 65 79.5314 65 97.5295C82.9818 97.5295 97.559 82.9391 97.559 64.941Z"/>
    <path d="M97.441 64.9409C115.423 64.9409 130 79.5312 130 97.5294C112.018 97.5294 97.441 82.939 97.441 64.9409Z"/>
    <path d="M65.118 97.4115C47.1361 97.4115 32.559 112.002 32.559 130C50.5408 130 65.118 115.41 65.118 97.4115Z"/>
    <path d="M65 97.4113C82.9818 97.4113 97.559 112.002 97.559 130C79.5771 130 65 115.409 65 97.4113Z"/>
  </g>
</svg>
